<svg width="103" height="103" viewBox="0 0 103 103" fill="none" xmlns="http://www.w3.org/2000/svg">
<circle cx="51.3278" cy="51.6166" r="51.3043" fill="#7649BB"/>
<path d="M62.7954 58.8776C65.0191 58.6854 66.7439 56.7258 66.6313 54.3845C66.5135 52.0431 64.5969 50.1629 62.2606 50.1629H62.1045C59.6914 50.2423 57.8106 52.2737 57.8874 54.6944C57.9641 55.9214 58.4657 56.9205 59.1515 57.648C56.4697 62.8686 52.4445 66.7059 46.3466 69.931C42.2446 72.0777 37.9123 72.8872 33.6952 72.3108C30.169 71.8139 27.4104 70.2359 25.7215 67.705C23.1933 63.8651 22.963 59.7229 25.069 55.5782C26.6069 52.5836 28.9049 50.396 30.4402 49.3201C30.0564 48.3236 29.5958 46.6355 29.3655 45.37C18.014 53.5084 19.1681 64.6361 22.6176 69.8952C25.1867 73.7325 30.4402 76.1866 36.1902 76.1866C37.723 76.1866 39.3351 76.0739 40.9063 75.6896C50.8759 73.7709 58.4273 67.7844 62.7596 58.957L62.7954 58.8776ZM76.4806 49.2817C70.5413 42.2961 61.7974 38.4587 51.8278 38.4587H50.5228C49.8753 37.0396 48.3809 36.1558 46.692 36.1558H46.5769C44.1638 36.1558 42.283 38.2308 42.3623 40.6464C42.4391 42.9467 44.3941 44.868 46.733 44.868H46.9223C48.6496 44.7911 50.144 43.7152 50.7556 42.1808H52.1758C58.0844 42.1808 63.6782 43.9073 68.7782 47.2836C72.6857 49.8555 75.4877 53.2317 77.0589 57.2637C78.4356 60.5631 78.3614 63.7882 76.9438 66.478C74.7584 70.697 71.0761 72.9256 66.209 72.9256C63.1409 72.9256 60.152 71.965 58.6167 71.2759C57.698 72.0393 56.1627 73.3073 55.0495 74.0758C58.4222 75.6076 61.8358 76.4914 65.1317 76.4914C72.6089 76.4914 78.1644 72.2724 80.2755 68.2019C82.5734 63.5961 82.3841 55.8446 76.5164 49.2048L76.4806 49.2817ZM36.8401 60.2557C36.9143 62.5586 38.8694 64.4773 41.2108 64.4773H41.3643C43.8183 64.4005 45.6966 62.3691 45.5815 59.9483C45.5815 57.6454 43.588 55.7293 41.2492 55.7293H41.0931C40.9395 55.7293 40.7118 55.7293 40.5173 55.8036C37.3366 50.4293 35.9931 44.6707 36.4947 38.4587C36.7992 33.7761 38.3345 29.7056 41.0931 26.3294C43.3936 23.4501 47.7258 22.0284 50.6789 21.9541C58.9596 21.7978 62.4116 32.1264 62.6777 36.2327L66.511 37.3828C65.6282 24.7949 57.8106 18.191 50.3334 18.191C43.3168 18.191 36.8401 23.2964 34.23 30.7815C30.6654 40.7617 33.0043 50.355 37.3749 58.0322C36.9937 58.5317 36.7634 59.413 36.8401 60.2557Z" fill="white"/>
</svg>
