<svg width="41" height="41" viewBox="0 0 41 41" fill="none" xmlns="http://www.w3.org/2000/svg">
<path d="M8.54199 9.39579C8.54199 7.81002 9.17194 6.28919 10.2932 5.16788C11.4146 4.04657 12.9354 3.41663 14.5212 3.41663H20.5003V15.375H14.5212C12.9354 15.375 11.4146 14.745 10.2932 13.6237C9.17194 12.5024 8.54199 10.9816 8.54199 9.39579Z" stroke="#7649BB" stroke-width="2" stroke-linecap="round" stroke-linejoin="round"/>
<path d="M20.5 3.41663H26.4792C27.2644 3.41663 28.0419 3.57128 28.7673 3.87176C29.4927 4.17224 30.1519 4.61267 30.7071 5.16788C31.2623 5.7231 31.7027 6.38224 32.0032 7.10766C32.3037 7.83309 32.4583 8.6106 32.4583 9.39579C32.4583 10.181 32.3037 10.9585 32.0032 11.6839C31.7027 12.4093 31.2623 13.0685 30.7071 13.6237C30.1519 14.1789 29.4927 14.6193 28.7673 14.9198C28.0419 15.2203 27.2644 15.375 26.4792 15.375H20.5V3.41663Z" stroke="#7649BB" stroke-width="2" stroke-linecap="round" stroke-linejoin="round"/>
<path d="M20.5 21.3542C20.5 20.569 20.6547 19.7915 20.9551 19.066C21.2556 18.3406 21.696 17.6815 22.2513 17.1263C22.8065 16.571 23.4656 16.1306 24.191 15.8301C24.9165 15.5297 25.694 15.375 26.4792 15.375C27.2644 15.375 28.0419 15.5297 28.7673 15.8301C29.4927 16.1306 30.1519 16.571 30.7071 17.1263C31.2623 17.6815 31.7027 18.3406 32.0032 19.066C32.3037 19.7915 32.4583 20.569 32.4583 21.3542C32.4583 22.1394 32.3037 22.9169 32.0032 23.6423C31.7027 24.3677 31.2623 25.0269 30.7071 25.5821C30.1519 26.1373 29.4927 26.5777 28.7673 26.8782C28.0419 27.1787 27.2644 27.3333 26.4792 27.3333C25.694 27.3333 24.9165 27.1787 24.191 26.8782C23.4656 26.5777 22.8065 26.1373 22.2513 25.5821C21.696 25.0269 21.2556 24.3677 20.9551 23.6423C20.6547 22.9169 20.5 22.1394 20.5 21.3542V21.3542Z" stroke="#7649BB" stroke-width="2" stroke-linecap="round" stroke-linejoin="round"/>
<path d="M8.54199 33.3125C8.54199 31.7268 9.17194 30.2059 10.2932 29.0846C11.4146 27.9633 12.9354 27.3334 14.5212 27.3334H20.5003V33.3125C20.5003 34.8983 19.8704 36.4191 18.7491 37.5404C17.6278 38.6618 16.1069 39.2917 14.5212 39.2917C12.9354 39.2917 11.4146 38.6618 10.2932 37.5404C9.17194 36.4191 8.54199 34.8983 8.54199 33.3125Z" stroke="#7649BB" stroke-width="2" stroke-linecap="round" stroke-linejoin="round"/>
<path d="M8.54199 21.3542C8.54199 19.7684 9.17194 18.2476 10.2932 17.1263C11.4146 16.0049 12.9354 15.375 14.5212 15.375H20.5003V27.3333H14.5212C12.9354 27.3333 11.4146 26.7034 10.2932 25.5821C9.17194 24.4608 8.54199 22.9399 8.54199 21.3542Z" stroke="#7649BB" stroke-width="2" stroke-linecap="round" stroke-linejoin="round"/>
</svg>
